<svg width="96" height="96" xmlns="http://www.w3.org/2000/svg" xmlns:xlink="http://www.w3.org/1999/xlink" xml:space="preserve" overflow="hidden"><g transform="translate(-704 -213)"><path d="M735 244 724 244 724 237 735 237 735 244ZM750 237 750 244 739 244 739 237 750 237ZM765 237 765 244 754 244 754 237 765 237ZM780 237 780 244 769 244 769 237 780 237ZM780 255 769 255 769 248 780 248 780 255ZM780 263.5 769 264.5 769 259 780 259 780 263.5ZM735 259 735 267.5 724 268.5 724 259 735 259ZM735 255 724 255 724 248 735 248 735 255ZM750 255 739 255 739 248 750 248 750 255ZM754 255 754 248 765 248 765 255 754 255ZM750 266.2 739 267.2 739 259 750 259 750 266.2ZM754 259 765 259 765 264.8 754 265.8 754 259ZM786 269 786 231 724 231 724 230C724 225 720 221 715 221 713.3 221 712 222.3 712 224 712 225.7 713.3 227 715 227 716.7 227 718 228.3 718 230L718 280C718 285 722 289 727 289L730 289 774 289 783 289C784.7 289 786 287.7 786 286 786 284.3 784.7 283 783 283L727 283C725.3 283 724 281.7 724 280L724 274.5 786 269Z"/><path d="M736 295C736 298.314 733.314 301 730 301 726.686 301 724 298.314 724 295 724 291.686 726.686 289 730 289 733.314 289 736 291.686 736 295Z"/><path d="M780 295C780 298.314 777.314 301 774 301 770.686 301 768 298.314 768 295 768 291.686 770.686 289 774 289 777.314 289 780 291.686 780 295Z"/></g></svg>