<svg width="96" height="96" xmlns="http://www.w3.org/2000/svg" xmlns:xlink="http://www.w3.org/1999/xlink" xml:space="preserve" overflow="hidden"><g transform="translate(-338 -124)"><path d="M365 190C365 193.866 361.866 197 358 197 354.134 197 351 193.866 351 190 351 186.134 354.134 183 358 183 361.866 183 365 186.134 365 190Z"/><path d="M423 190C423 193.866 419.866 197 416 197 412.134 197 409 193.866 409 190 409 186.134 412.134 183 416 183 419.866 183 423 186.134 423 190Z"/><path d="M342 148 398 148 398 172 342 172Z"/><path d="M406 158 412 158C413.8 158 415.4 159.2 415.8 160.9L417.8 167.8C417.8 167.9 417.9 167.9 417.9 168L406 168 406 158ZM412 154 402 154 402 168 402 174 402 190 406 190C406 184.5 410.5 180 416 180 421.5 180 426 184.5 426 190 428.2 190 430 188.2 430 186L430 176C430 174.7 429.4 173.6 428.4 172.8L423.1 168.8C422.4 168.3 421.9 167.5 421.7 166.7L419.7 159.8C418.7 156.4 415.5 154 412 154Z"/><path d="M398 190 368 190C368 184.5 363.5 180 358 180 352.5 180 348 184.5 348 190L342 190 342 176 398 176 398 190Z"/></g></svg>